<svg width="15" height="15" viewBox="0 0 15 15" fill="none" xmlns="http://www.w3.org/2000/svg">
<path d="M13.0859 6.63525C13.6382 6.63525 14.0859 7.08297 14.0859 7.63525C14.0859 8.18754 13.6382 8.63525 13.0859 8.63525L13.0859 6.63525ZM0.378831 8.34236C-0.0116939 7.95184 -0.011694 7.31867 0.378831 6.92815L6.74279 0.564187C7.13332 0.173662 7.76648 0.173662 8.157 0.564187C8.54753 0.954711 8.54753 1.58788 8.157 1.9784L2.50015 7.63525L8.15701 13.2921C8.54753 13.6826 8.54753 14.3158 8.15701 14.7063C7.76648 15.0968 7.13332 15.0968 6.74279 14.7063L0.378831 8.34236ZM13.0859 8.63525L1.08594 8.63525L1.08594 6.63525L13.0859 6.63525L13.0859 8.63525Z" fill="white"/>
</svg>
