<svg width="14" height="15" viewBox="0 0 14 15" fill="none" xmlns="http://www.w3.org/2000/svg">
<path d="M1 6.63525C0.447715 6.63525 4.82823e-08 7.08297 0 7.63525C-4.82823e-08 8.18754 0.447715 8.63525 1 8.63525L1 6.63525ZM13.7071 8.34236C14.0976 7.95184 14.0976 7.31867 13.7071 6.92815L7.34315 0.564187C6.95262 0.173662 6.31946 0.173662 5.92893 0.564187C5.53841 0.954711 5.53841 1.58788 5.92893 1.9784L11.5858 7.63525L5.92893 13.2921C5.53841 13.6826 5.53841 14.3158 5.92893 14.7063C6.31946 15.0968 6.95262 15.0968 7.34315 14.7063L13.7071 8.34236ZM1 8.63525L13 8.63525L13 6.63525L1 6.63525L1 8.63525Z" fill="white"/>
</svg>
