<svg width="23" height="23" viewBox="0 0 23 23" fill="none" xmlns="http://www.w3.org/2000/svg">
<path d="M22.316 7.37139C22.298 6.46907 22.127 5.57637 21.8105 4.73139C21.5312 4.00517 21.1036 3.34539 20.5549 2.79433C20.0062 2.24328 19.3486 1.81311 18.6243 1.53139C17.7784 1.21525 16.8851 1.04522 15.9824 1.02853C14.8173 0.972532 14.4464 0.959961 11.4907 0.959961C8.53507 0.959961 8.16419 0.972532 7.00246 1.02396C6.09986 1.04189 5.20689 1.21348 4.36176 1.53139C3.63369 1.80388 2.97418 2.23301 2.42974 2.78853C1.87684 3.33348 1.44856 3.99205 1.17444 4.71882C0.857364 5.56643 0.686416 6.46184 0.668892 7.36682C0.614116 8.53482 0.601562 8.9051 0.601562 11.8662C0.601562 14.8274 0.614116 15.1977 0.659763 16.36C0.678951 17.2645 0.851839 18.1592 1.17101 19.0057C1.45125 19.7302 1.87937 20.3883 2.42799 20.9377C2.97662 21.4871 3.63369 21.9159 4.3572 22.1965C5.20279 22.5142 6.09609 22.6858 6.99904 22.704C8.15962 22.7554 8.53051 22.768 11.4862 22.768C14.4418 22.768 14.8127 22.7554 15.9733 22.704C16.8763 22.6863 17.7697 22.5147 18.6151 22.1965C19.3389 21.9163 19.9961 21.4876 20.5448 20.9382C21.0935 20.3887 21.5215 19.7305 21.8013 19.0057C22.1184 18.1588 22.2897 17.2642 22.308 16.36C22.3594 15.1965 22.3719 14.8262 22.3719 11.8651C22.3719 8.90396 22.3719 8.53368 22.3172 7.37025L22.316 7.37139ZM20.3555 16.2742C20.3485 16.9655 20.2219 17.6503 19.9811 18.2982C19.7997 18.7687 19.522 19.196 19.1659 19.5526C18.8098 19.9093 18.3831 20.1874 17.9133 20.3691C17.2662 20.6098 16.5825 20.7366 15.8923 20.744C14.7443 20.7954 14.3996 20.808 11.4942 20.808C8.58871 20.808 8.23951 20.7954 7.09604 20.744C6.40578 20.7371 5.72195 20.6102 5.075 20.3691C4.6007 20.196 4.17158 19.9179 3.8197 19.5554C3.45869 19.2022 3.18108 18.7727 3.00718 18.2982C2.76886 17.6499 2.64416 16.9651 2.63858 16.2742C2.58722 15.1314 2.57467 14.7885 2.57467 11.8742C2.57467 8.95996 2.58722 8.6171 2.63858 7.47425C2.64549 6.78297 2.77213 6.09815 3.01288 5.45025C3.18573 4.97417 3.46526 4.54411 3.82997 4.1931C4.1825 3.83142 4.61143 3.55338 5.08527 3.37939C5.73237 3.13882 6.4161 3.012 7.10631 3.00453C8.24978 2.95425 8.59441 2.94053 11.501 2.94053C14.4076 2.94053 14.7557 2.9531 15.8991 3.00453C16.5894 3.0115 17.2732 3.13833 17.9202 3.37939C18.3945 3.55239 18.8236 3.83056 19.1755 4.1931C19.5365 4.54625 19.8141 4.97578 19.988 5.45025C20.2259 6.09871 20.3502 6.78343 20.3555 7.47425C20.4022 8.6171 20.4194 8.95996 20.4194 11.8742C20.4194 14.7885 20.4068 15.1245 20.3555 16.2754V16.2742Z" fill="#272727"/>
<path d="M11.4902 6.26343C10.3843 6.26343 9.30317 6.59186 8.38361 7.2072C7.46404 7.82253 6.74732 8.69713 6.32409 9.7204C5.90086 10.7437 5.79012 11.8696 6.00588 12.9559C6.22165 14.0422 6.75421 15.0401 7.53624 15.8232C8.31827 16.6064 9.31462 17.1397 10.3993 17.3558C11.484 17.5719 12.6084 17.461 13.6301 17.0372C14.6519 16.6133 15.5252 15.8955 16.1397 14.9746C16.7541 14.0537 17.0821 12.971 17.0821 11.8634C17.0821 10.3782 16.4929 8.95383 15.4442 7.90363C14.3956 6.85342 12.9733 6.26343 11.4902 6.26343ZM11.4902 15.5C10.7725 15.5 10.0709 15.2868 9.4741 14.8875C8.87732 14.4882 8.41218 13.9206 8.13752 13.2565C7.86285 12.5924 7.79098 11.8617 7.93101 11.1567C8.07103 10.4517 8.41666 9.80415 8.92418 9.29589C9.4317 8.78763 10.0783 8.44149 10.7823 8.30126C11.4862 8.16103 12.2159 8.233 12.879 8.50807C13.5421 8.78314 14.1089 9.24895 14.5076 9.84661C14.9064 10.4443 15.1192 11.1469 15.1192 11.8657C15.1192 12.8296 14.7369 13.754 14.0563 14.4355C13.3757 15.1171 12.4527 15.5 11.4902 15.5Z" fill="#272727"/>
<path d="M18.611 6.04205C18.611 6.30064 18.5345 6.55341 18.391 6.76841C18.2476 6.98342 18.0437 7.151 17.8051 7.24996C17.5666 7.34891 17.3041 7.37481 17.0508 7.32436C16.7976 7.27391 16.5649 7.14939 16.3824 6.96654C16.1998 6.7837 16.0755 6.55074 16.0251 6.29712C15.9747 6.0435 16.0006 5.78062 16.0994 5.54172C16.1982 5.30282 16.3655 5.09863 16.5802 4.95496C16.7949 4.8113 17.0473 4.73462 17.3055 4.73462C17.6518 4.73462 17.9838 4.87237 18.2286 5.11756C18.4735 5.36275 18.611 5.6953 18.611 6.04205Z" fill="#272727"/>
</svg>
