<svg width="29" height="20" viewBox="0 0 29 20" fill="none" xmlns="http://www.w3.org/2000/svg">
<path d="M27.5912 3.10392C27.4306 2.51066 27.1177 1.96982 26.6837 1.53517C26.2496 1.10051 25.7096 0.787176 25.1172 0.626294C22.9224 0.0235489 14.1361 0.0235488 14.1361 0.0235488C10.4666 -0.0198868 6.79818 0.173702 3.15358 0.603111C2.56189 0.772603 2.02367 1.09166 1.59066 1.52962C1.15765 1.96758 0.844404 2.50971 0.681025 3.10392C0.282376 5.33503 0.0886619 7.59801 0.102311 9.86452C0.0878963 12.131 0.281616 14.3941 0.681025 16.6251C0.841672 17.2184 1.15455 17.7592 1.58857 18.1939C2.02259 18.6285 2.56263 18.9419 3.15503 19.1027C5.37439 19.704 14.1376 19.704 14.1376 19.704C17.807 19.7475 21.4755 19.5539 25.1201 19.1245C25.7118 18.9633 26.2511 18.65 26.6846 18.2156C27.1181 17.7812 27.4306 17.2409 27.5912 16.6483C27.9898 14.4172 28.1836 12.1542 28.1699 9.8877C28.1962 7.61303 28.0024 5.34116 27.5912 3.10392Z" fill="#272727"/>
<path d="M11.3398 14.0782L18.6461 9.8633L11.3398 5.64844V14.0782Z" fill="white"/>
</svg>
